# xmcd CD database file
#
# Track frame offsets:
#	187
#	11235
#	25592
#	37645
#	51335
#	90407
#	104922
#	117585
#	133847
#	146492
#	160430
#	175522
#	190202
#	201922
#	216005
#	225992
#	239492
#	252652
#	265225
#	277540
#	291172
#	305662
#
# Disc length: 4281 seconds
#
# Revision: 0
# Processed by: cddbd v1.5PL3 Copyright (c) Steve Scherf et al.
# Submitted via: CDex 1.51
#
DISCID=3f10b716
DTITLE=Benny Goodman and His Orchestra - Benny Goodman and His Orchestra [CD2]
DYEAR=1990
DGENRE=Jazz
TTITLE0=Swing Low, Sweet Chariot
TTITLE1=Chloe
TTITLE2=Rosetta
TTITLE3=Can't We Be Friends?
TTITLE4=Sing, Sing, Sing[Part I&II]
TTITLE5=Roll 'em
TTITLE6=Sugar Foot Stomp
TTITLE7=I Can't Give You Anything But Love, Baby
TTITLE8=Camel Hop
TTITLE9=Life Goes To A Party
TTITLE10=Don't Be That Way
TTITLE11=One O'clock Jump
TTITLE12=Ti-pi-tin
TTITLE13=Big John Special
TTITLE14=Margie
TTITLE15=Topsy
TTITLE16=Smoke House
TTITLE17=Louise
TTITLE18=Bach Goes To Town(A Fugue In Swing Tempo)
TTITLE19=Undecided
TTITLE20=And The Angels Sing
TTITLE21=Estrellita(Little Star)
EXTD=YEAR: 1990
EXTT0=
EXTT1=
EXTT2=
EXTT3=
EXTT4=
EXTT5=
EXTT6=
EXTT7=
EXTT8=
EXTT9=
EXTT10=
EXTT11=
EXTT12=
EXTT13=
EXTT14=
EXTT15=
EXTT16=
EXTT17=
EXTT18=
EXTT19=
EXTT20=
EXTT21=
PLAYORDER=
